<?xml version="1.0" standalone="no"?>
<!DOCTYPE svg PUBLIC "-//W3C//DTD SVG 20010904//EN"
 "http://www.w3.org/TR/2001/REC-SVG-20010904/DTD/svg10.dtd">
<svg version="1.0" xmlns="http://www.w3.org/2000/svg"
 width="277.000000pt" height="277.000000pt" viewBox="0 0 277.000000 277.000000"
 preserveAspectRatio="xMidYMid meet">
<metadata>
Created by potrace 1.11, written by Peter Selinger 2001-2013
</metadata>
<g transform="translate(0.000000,277.000000) scale(0.100000,-0.100000)"
fill="#000000" stroke="none">
<path d="M2078 1722 c-34 -3 -43 -11 -39 -34 0 -5 -6 -8 -15 -8 -8 0 -12 -5
-9 -10 4 -6 10 -8 14 -5 10 6 6 -53 -3 -63 -13 -12 -56 -9 -56 4 0 7 -3 15 -7
17 -5 3 -8 -5 -8 -18 0 -13 3 -23 7 -22 4 1 14 -7 22 -18 12 -14 14 -15 10 -4
-3 10 0 20 7 24 8 6 10 -1 7 -23 -2 -17 -1 -29 3 -27 4 3 12 -2 19 -10 10 -12
9 -16 -2 -20 -8 -3 -15 -13 -15 -22 0 -14 2 -14 12 1 12 15 13 15 19 0 6 -17
31 -14 31 3 0 6 2 14 5 17 3 3 6 -10 6 -29 0 -36 -4 -39 -43 -35 -13 1 -23 -3
-23 -9 0 -6 6 -8 14 -5 8 3 17 0 21 -6 5 -8 11 -8 19 -1 9 8 13 7 13 -4 0 -8
-4 -12 -9 -9 -4 3 -8 0 -8 -5 0 -6 5 -11 12 -11 6 0 9 -2 6 -5 -9 -10 -38 7
-31 18 4 6 1 7 -7 2 -9 -5 -11 -4 -6 3 4 7 5 12 2 12 -3 0 -10 -9 -16 -20 -8
-15 -6 -23 12 -39 12 -12 24 -18 27 -15 3 3 -5 14 -19 24 -14 11 -20 20 -14
20 6 0 17 -7 24 -15 7 -8 16 -13 19 -10 4 2 8 -2 8 -10 0 -8 -7 -17 -14 -19
-8 -3 -11 -11 -8 -16 4 -6 3 -9 -2 -8 -4 1 -17 -3 -28 -9 -25 -13 -91 6 -87
26 1 7 -1 10 -6 7 -5 -3 -20 6 -33 20 l-24 26 24 19 c13 10 34 20 47 20 13 1
29 3 34 4 6 1 13 3 16 4 4 0 1 7 -5 15 -15 18 -10 59 9 68 13 6 13 7 -1 7 -9
1 -19 10 -22 21 -5 20 -41 24 -204 22 l-43 0 0 60 c0 86 -12 97 -93 86 -34 -5
-73 -9 -85 -11 -26 -2 -41 -22 -37 -50 3 -14 0 -16 -10 -7 -10 8 -15 8 -21 -1
-4 -8 -3 -9 4 -5 7 4 12 2 12 -3 0 -20 2 -26 11 -37 6 -7 3 -16 -8 -25 -16
-13 -17 -12 -4 3 11 15 11 19 -2 24 -9 3 -19 15 -23 26 -3 11 -8 17 -11 14 -3
-3 2 -17 11 -30 10 -15 12 -27 6 -31 -6 -3 -13 1 -16 9 -3 9 -10 16 -16 16 -5
0 -6 -5 -2 -12 5 -8 0 -9 -16 -5 -13 3 -33 1 -44 -5 -12 -6 -43 -10 -69 -9
-51 3 -131 -28 -141 -54 -3 -8 -13 -15 -21 -15 -9 0 -13 -4 -10 -10 3 -5 1
-10 -4 -10 -6 0 -11 -5 -11 -11 0 -5 6 -7 13 -3 8 5 8 2 -2 -9 -14 -17 -26
-24 -17 -9 3 5 -2 9 -11 9 -12 0 -11 -5 7 -19 12 -10 16 -18 9 -18 -7 0 -9 -3
-6 -7 4 -3 1 -13 -7 -22 -22 -24 -22 -29 -2 -44 13 -10 15 -16 8 -21 -7 -4
-16 -5 -20 -2 -10 6 -9 67 1 84 5 6 4 12 -1 12 -5 0 -10 30 -11 67 -1 37 -5
71 -8 76 -7 11 -187 -2 -191 -14 -3 -6 -9 -6 -16 0 -14 12 -162 16 -187 6 -13
-5 -18 2 -23 28 -6 34 -41 73 -86 98 -36 20 -308 23 -334 4 -10 -8 -15 -18
-11 -24 3 -6 3 -16 -1 -22 -5 -8 -9 -8 -14 1 -4 7 -7 1 -7 -15 -1 -16 3 -22 7
-15 5 8 10 8 14 2 3 -5 -1 -12 -9 -16 -8 -3 -17 -1 -20 4 -7 11 -35 2 -35 -12
0 -7 5 -6 13 1 11 8 16 5 25 -14 6 -14 17 -25 23 -25 8 0 7 6 -2 18 -13 15
-12 16 3 3 10 -7 16 -17 13 -21 -7 -11 24 -35 32 -26 4 4 1 11 -7 16 -8 6 -10
10 -4 10 6 0 17 -6 23 -14 14 -17 -9 -29 -36 -19 -16 6 -16 5 -4 -10 9 -11 22
-15 35 -12 18 5 17 4 -3 -8 l-24 -15 21 -6 c18 -6 20 -11 12 -26 -7 -13 -7
-21 0 -25 6 -4 7 -12 3 -18 -4 -7 -8 -20 -9 -29 -3 -36 -4 -39 -13 -34 -5 3
-12 -1 -15 -10 -5 -13 -9 -14 -21 -4 -18 15 -20 -1 -2 -19 10 -11 7 -12 -13
-6 l-25 7 23 -17 c17 -12 20 -20 13 -29 -7 -8 -7 -16 -1 -22 7 -7 3 -17 -12
-30 l-23 -19 19 22 c17 21 18 23 2 29 -14 5 -15 9 -4 16 10 8 10 9 -2 5 -8 -2
-14 -10 -12 -17 2 -8 -3 -10 -13 -6 -10 3 -14 2 -10 -5 4 -6 13 -8 21 -5 8 3
11 0 7 -9 -4 -11 -10 -12 -26 -4 -21 10 -21 9 1 -8 18 -15 20 -21 10 -32 -11
-11 -10 -12 1 -6 11 6 13 4 7 -10 -5 -15 -4 -16 9 -5 10 8 12 16 6 19 -6 4 -2
12 9 19 12 7 20 8 20 2 0 -5 -5 -10 -11 -10 -5 0 -8 -4 -4 -9 3 -6 14 -8 24
-6 10 2 18 -3 18 -10 0 -13 -14 -14 -32 -3 -6 4 -17 -2 -24 -14 -7 -11 -8 -17
-2 -13 6 3 11 1 11 -6 0 -8 5 -8 16 2 22 18 64 23 60 7 -1 -7 -1 -10 1 -5 3 4
9 5 14 1 5 -3 9 -1 9 4 0 5 -10 13 -22 19 -15 6 -18 12 -10 17 7 4 12 2 12 -4
0 -6 5 -8 10 -5 6 3 10 1 10 -5 0 -6 5 -8 10 -5 6 4 7 12 3 18 -5 8 -2 8 9 0
8 -7 18 -10 22 -6 4 4 11 1 17 -7 6 -10 12 -11 16 -5 13 18 82 11 125 -12 4
-2 10 2 14 8 4 7 3 9 -2 6 -6 -3 -16 -2 -23 2 -8 5 -2 8 16 9 55 3 100 21 127
51 10 11 23 18 29 14 6 -4 8 0 4 11 -5 11 -3 15 5 10 7 -5 9 -2 5 8 -3 9 0 24
7 33 11 16 13 16 13 1 0 -9 -5 -16 -11 -16 -5 0 -1 -7 10 -15 10 -9 13 -14 5
-13 -7 2 -16 -3 -19 -11 -3 -9 0 -11 7 -6 8 4 21 -2 33 -15 l21 -22 -24 7
c-20 7 -22 6 -12 -7 7 -8 23 -14 35 -13 13 1 29 -2 36 -8 7 -5 15 -7 19 -3 3
3 15 -1 25 -11 10 -9 18 -11 18 -5 0 6 9 10 19 9 11 0 17 -5 15 -9 -3 -5 -10
-5 -16 -2 -7 4 -8 2 -4 -4 4 -7 -1 -10 -14 -7 -11 2 -20 0 -20 -6 0 -10 35 -7
46 4 4 4 19 7 33 7 18 0 22 3 12 9 -9 6 -10 11 -2 15 6 4 11 2 11 -3 0 -6 5
-11 11 -11 5 0 7 4 4 10 -3 5 0 7 9 4 15 -6 18 -44 3 -44 -5 0 -7 7 -3 15 4
13 2 13 -14 5 -23 -12 -35 -30 -21 -30 6 0 11 5 11 11 0 8 4 8 15 -1 8 -6 19
-9 25 -5 6 4 17 3 23 -2 7 -4 4 0 -6 10 -19 16 -18 17 14 17 20 0 29 4 22 8
-7 4 12 9 43 10 32 1 53 -2 50 -7 -4 -5 5 -8 20 -6 18 2 24 -2 20 -11 -3 -7
-1 -16 5 -19 5 -4 9 -3 8 2 -3 20 2 34 11 28 6 -4 7 -11 4 -17 -4 -7 -2 -8 5
-4 6 4 10 10 8 14 -2 4 4 15 14 24 16 15 18 15 24 0 5 -13 8 -14 14 -3 6 9 11
10 15 3 4 -6 13 -9 21 -5 8 3 15 1 15 -4 0 -5 -20 -9 -45 -8 -25 1 -45 -2 -45
-8 0 -5 6 -7 14 -4 13 5 39 -14 33 -24 -1 -2 6 5 16 16 19 20 19 20 14 -3 -3
-12 -1 -20 4 -16 5 3 9 13 9 22 0 15 2 15 11 2 9 -13 10 -12 5 2 -3 10 -1 20
4 23 6 4 10 1 10 -6 0 -8 4 -8 13 -1 7 6 25 9 39 8 15 -2 25 0 23 4 -3 5 2 10
9 13 9 4 17 -1 19 -11 3 -12 5 -11 6 6 1 13 7 22 17 22 9 0 12 5 8 13 -4 6 -4
9 1 5 4 -4 15 2 25 14 16 20 17 20 17 2 0 -10 -8 -30 -19 -43 -10 -13 -18 -19
-18 -12 0 6 -4 11 -8 11 -5 0 -9 -7 -9 -15 0 -8 4 -12 8 -9 4 2 15 -6 23 -18
11 -15 16 -18 16 -8 0 13 2 13 10 0 5 -8 10 -10 10 -4 0 17 -25 35 -36 26 -5
-4 0 3 10 16 23 27 26 27 21 2 -4 -23 -1 -24 25 -10 13 7 21 7 25 0 3 -5 11
-10 16 -10 6 0 8 4 4 9 -6 10 17 8 49 -5 12 -4 17 -4 13 2 -3 6 5 10 18 10 13
0 21 -4 19 -8 -3 -4 2 -8 11 -8 10 0 13 5 9 13 -4 6 -4 9 1 5 4 -4 14 -3 22 4
11 8 12 7 7 -6 -3 -9 -1 -16 5 -16 6 0 11 5 11 12 0 9 3 9 12 0 16 -16 31 -15
22 1 -5 8 -2 8 9 -2 23 -18 22 -20 -13 -16 -16 2 -32 -1 -36 -7 -4 -7 -9 -6
-14 2 -6 10 -12 10 -26 0 -14 -8 -14 -10 -3 -7 9 3 22 0 28 -6 6 -6 11 -7 11
-1 0 5 5 2 11 -6 9 -12 10 -12 5 3 -4 12 -2 17 6 14 7 -2 12 -11 10 -18 -1 -8
4 -5 13 5 13 17 19 15 17 -5 -1 -3 6 -6 14 -6 7 0 14 4 14 9 0 4 -4 8 -8 8 -4
0 -8 10 -9 23 l-2 22 18 -24 c11 -14 18 -30 17 -35 -2 -6 -1 -8 1 -3 3 4 9 5
14 1 5 -3 8 0 7 8 -2 8 7 13 22 13 14 0 31 4 39 9 11 7 13 4 9 -12 -4 -12 -3
-24 1 -27 5 -2 8 7 7 22 -1 17 -7 27 -19 29 -9 1 -15 -1 -13 -5 2 -3 -13 -6
-33 -6 -24 0 -38 4 -38 12 0 9 4 10 14 2 10 -9 13 -8 13 1 0 10 3 10 14 1 8
-7 17 -8 20 -3 3 5 25 8 48 7 28 0 47 4 56 15 10 13 11 12 5 -4 -5 -16 -3 -18
15 -14 12 4 25 2 28 -3 3 -5 10 -9 15 -9 6 0 8 3 6 8 -3 4 41 7 98 7 111 1
135 10 131 49 -2 14 2 23 11 23 16 0 17 -9 1 -26 -11 -10 -6 -11 22 -6 24 4
30 2 20 -4 -8 -5 -18 -7 -23 -4 -5 3 -6 -5 -2 -18 5 -19 4 -21 -5 -9 -10 13
-11 13 -7 0 2 -8 10 -14 16 -12 6 1 11 -3 11 -9 0 -6 -9 -9 -19 -6 -14 3 -18
1 -14 -9 7 -18 25 -13 40 11 15 25 17 46 2 25 -7 -10 -9 -11 -7 -2 5 18 23 15
22 -4 -1 -8 3 -13 10 -11 6 2 10 13 9 23 -1 15 2 14 18 -6 10 -14 19 -20 19
-14 0 6 6 11 14 11 8 0 12 -6 8 -15 -4 -11 -2 -13 9 -6 23 14 50 15 47 2 -2
-7 2 -14 7 -15 6 -2 10 2 10 9 0 6 16 13 35 16 19 2 39 7 43 12 5 4 10 36 10
71 l2 64 -34 5 -34 5 41 23 c41 23 62 62 62 119 0 29 -44 80 -91 103 -70 36
-184 19 -232 -35 -30 -34 -56 -92 -52 -113 3 -16 0 -19 -12 -15 -13 5 -13 2 2
-20 9 -14 14 -31 10 -37 -4 -6 -1 -19 7 -28 12 -15 11 -16 -4 -4 -9 8 -21 11
-26 9 -4 -3 -8 5 -8 18 0 20 2 22 15 12 12 -10 14 -9 8 6 -4 10 -7 21 -7 23 0
3 -4 3 -8 0 -12 -7 -9 35 3 54 5 8 11 24 12 35 2 16 1 17 -6 5 -5 -8 -7 -18
-5 -22 3 -4 0 -8 -5 -8 -15 0 -14 33 2 49 10 11 10 13 0 7 -10 -6 -13 18 -13
103 0 77 -4 112 -12 118 -13 8 -103 11 -170 5z m-35 -139 c-10 -3 -9 -10 2
-27 8 -12 12 -26 8 -31 -5 -4 1 -5 12 -2 17 6 18 5 4 -5 -9 -7 -14 -20 -11
-28 3 -8 2 -12 -2 -8 -4 3 -8 13 -10 21 -1 8 -6 21 -12 28 -8 12 -9 24 -5 52
0 4 7 7 14 6 9 0 9 -2 0 -6z m41 -43 c-6 -5 -24 21 -24 34 0 6 6 1 14 -10 8
-10 12 -21 10 -24z m-526 6 c-2 -1 -12 -8 -23 -16 -17 -12 -18 -12 -7 0 15 18
16 34 0 24 -7 -4 -8 -3 -4 5 6 9 11 9 22 0 8 -6 13 -12 12 -13z m-1068 -26 c0
-5 -2 -10 -4 -10 -3 0 -8 5 -11 10 -3 6 -1 10 4 10 6 0 11 -4 11 -10z m1078 3
c-22 -6 -23 -17 -3 -33 8 -7 15 -17 15 -22 0 -6 -9 0 -20 13 -10 13 -19 19
-20 12 0 -6 4 -14 10 -18 5 -3 7 -12 3 -21 -3 -9 0 -14 7 -12 7 2 15 -4 17
-12 4 -12 3 -12 -5 -1 -6 8 -12 10 -16 3 -4 -6 2 -15 11 -21 14 -8 15 -11 3
-12 -8 -1 -18 -1 -22 0 -5 0 -8 -2 -8 -6 0 -14 17 -35 26 -33 5 1 10 -4 12
-12 3 -10 2 -10 -6 1 -11 16 -19 4 -17 -26 2 -15 -2 -20 -13 -15 -11 4 -13 1
-7 -9 5 -8 4 -11 0 -6 -15 13 -14 36 1 30 8 -3 14 0 14 7 0 6 -4 9 -9 5 -6 -3
-8 5 -5 19 2 14 0 27 -6 31 -6 3 -7 -1 -4 -10 5 -11 2 -14 -12 -9 -18 5 -18 5
-1 -6 9 -6 15 -16 11 -21 -4 -6 -11 -6 -20 2 -12 10 -13 9 -8 -5 3 -9 11 -16
17 -16 6 0 7 -3 4 -6 -3 -4 -2 -15 4 -25 6 -12 6 -19 0 -19 -5 0 -13 9 -16 21
-4 11 -9 18 -12 15 -3 -2 -15 5 -28 17 -12 12 -31 27 -41 33 -13 8 -14 11 -4
12 44 3 86 15 95 27 6 7 11 36 10 64 -1 27 2 48 6 45 4 -2 9 3 13 11 3 8 13
14 23 14 17 -1 17 -2 1 -6z m-886 -50 c-10 -4 -10 -8 -1 -19 6 -8 8 -15 3 -15
-53 -8 -54 -8 -36 17 9 13 24 23 32 23 11 0 11 -2 2 -6z m38 -86 c0 -5 -9 1
-21 14 -15 17 -19 19 -15 7 16 -48 16 -51 1 -25 -20 35 -10 55 16 31 10 -9 19
-21 19 -27z m195 15 c-3 -3 -11 0 -18 7 -9 10 -8 11 6 5 10 -3 15 -9 12 -12z
m440 0 c-3 -3 -11 0 -18 7 -9 10 -8 11 6 5 10 -3 15 -9 12 -12z m-421 -20 c-6
-4 -10 -15 -9 -24 2 -9 -3 -19 -11 -22 -12 -5 -12 -2 -3 16 9 17 9 20 -3 15
-8 -3 -15 1 -15 8 0 7 6 11 13 8 6 -2 15 1 19 7 4 6 10 9 13 5 4 -3 2 -9 -4
-13z m405 -8 c-8 -9 -8 -14 -1 -14 6 0 14 5 17 10 5 8 11 8 19 1 7 -6 17 -7
22 -3 4 4 2 -1 -5 -10 -7 -10 -17 -16 -21 -13 -5 3 -11 1 -15 -4 -3 -6 -12 -8
-21 -4 -8 3 -12 8 -10 11 3 3 0 12 -7 20 -10 13 -9 14 2 7 11 -6 13 -4 8 8 -4
11 -2 14 9 10 11 -4 12 -9 3 -19z m-836 -37 c4 3 7 4 7 0 0 -18 -21 -14 -30 5
-10 21 -10 21 3 6 8 -10 17 -15 20 -11z m208 0 c-10 -9 -11 -8 -5 6 3 10 9 15
12 12 3 -3 0 -11 -7 -18z m459 -98 c0 -5 -4 -9 -8 -9 -5 0 -9 7 -9 15 0 8 4
12 9 9 4 -3 8 -9 8 -15z m15 -29 c-3 -5 0 -10 7 -10 27 0 43 -17 30 -32 -16
-19 -77 -18 -78 2 -1 25 7 32 23 18 14 -11 15 -10 9 10 -5 14 -3 22 4 22 6 0
8 -4 5 -10z"/>
<path d="M1534 1441 c0 -24 5 -38 13 -38 8 0 9 5 4 11 -4 6 -7 21 -6 34 1 13
-1 25 -5 27 -3 2 -6 -13 -6 -34z"/>
<path d="M655 1450 c-3 -5 -1 -10 4 -10 6 0 11 5 11 10 0 6 -2 10 -4 10 -3 0
-8 -4 -11 -10z"/>
<path d="M1349 1353 c-12 -16 -12 -17 2 -6 9 7 20 9 24 5 5 -4 5 -1 1 6 -9 16
-11 15 -27 -5z"/>
<path d="M1156 1177 c3 -10 9 -15 12 -12 3 3 0 11 -7 18 -10 9 -11 8 -5 -6z"/>
<path d="M1187 1183 c-4 -3 -7 -11 -7 -17 0 -6 5 -4 10 4 7 11 10 11 10 2 0
-7 5 -10 10 -7 6 4 8 11 5 16 -7 11 -19 12 -28 2z"/>
<path d="M1981 1646 c-12 -14 -6 -21 28 -41 9 -5 12 -4 7 3 -4 7 -1 12 6 12 9
0 9 3 -2 10 -13 9 -13 10 0 10 13 0 13 1 0 10 -20 13 -26 12 -39 -4z m19 -6
c-12 -8 -12 -10 -1 -10 8 0 12 -3 8 -6 -9 -9 -28 6 -22 17 4 5 12 9 18 9 7 0
6 -4 -3 -10z"/>
<path d="M188 1623 c7 -3 16 -2 19 1 4 3 -2 6 -13 5 -11 0 -14 -3 -6 -6z"/>
<path d="M160 1580 c6 -11 13 -20 16 -20 2 0 0 9 -6 20 -6 11 -13 20 -16 20
-2 0 0 -9 6 -20z"/>
<path d="M195 1569 c-4 -5 -2 -9 4 -9 5 0 8 -9 6 -20 -2 -11 1 -22 6 -25 5 -4
7 -10 4 -15 -3 -4 5 -6 17 -3 23 4 23 4 3 -13 -18 -15 -18 -16 -1 -10 13 5 17
2 13 -8 -4 -10 -1 -13 7 -10 18 7 30 -12 15 -22 -8 -5 -9 -3 -4 7 7 11 6 12
-7 2 -8 -7 -18 -10 -21 -6 -4 3 -7 1 -7 -6 0 -8 7 -11 15 -7 8 3 15 1 15 -3 0
-5 3 -17 6 -26 4 -9 3 -15 -2 -14 -23 4 -33 -3 -31 -20 0 -11 5 -17 9 -15 4 3
8 -3 8 -13 1 -15 3 -14 13 5 7 12 16 20 19 16 4 -3 5 2 4 13 -2 10 1 23 6 30
5 7 5 14 -2 18 -5 3 -10 1 -10 -6 0 -7 -3 -10 -6 -7 -3 3 1 16 8 28 11 18 11
22 -5 31 -9 6 -15 14 -12 19 3 6 -8 18 -25 29 -18 10 -27 22 -22 25 6 3 12 0
15 -6 2 -7 7 -10 11 -7 4 4 -4 18 -18 32 -14 14 -28 21 -31 16z m74 -206 c-6
-7 -15 -10 -20 -7 -13 8 -3 21 15 21 12 0 13 -4 5 -14z"/>
<path d="M181 1534 c0 -11 3 -14 6 -6 3 7 2 16 -1 19 -3 4 -6 -2 -5 -13z"/>
<path d="M2301 1494 c0 -11 3 -14 6 -6 3 7 2 16 -1 19 -3 4 -6 -2 -5 -13z"/>
<path d="M2017 1457 c-8 -6 -7 -7 3 -4 8 2 22 0 32 -4 10 -6 18 -4 21 4 5 14
-38 17 -56 4z"/>
<path d="M1906 1392 c-3 -5 1 -9 9 -9 8 0 12 4 9 9 -3 4 -7 8 -9 8 -2 0 -6 -4
-9 -8z"/>
<path d="M2027 1336 c-3 -8 -3 -17 0 -20 9 -9 34 15 27 25 -8 13 -21 11 -27
-5z"/>
<path d="M186 1268 c3 -4 11 -5 19 -1 21 7 19 12 -4 10 -11 0 -18 -5 -15 -9z"/>
<path d="M677 1213 c-2 -5 4 -21 14 -38 11 -16 19 -24 19 -16 0 10 8 7 27 -10
14 -13 23 -19 20 -13 -4 7 0 15 9 18 12 5 14 1 9 -17 -7 -21 -6 -21 7 -3 12
15 17 16 23 6 5 -8 4 -11 -3 -6 -7 4 -10 -2 -9 -14 1 -20 2 -20 20 2 l19 23
-5 -22 c-3 -13 -3 -23 -1 -23 8 0 22 45 17 53 -3 4 -11 3 -18 -3 -9 -8 -14 -7
-18 4 -3 8 -16 13 -31 12 -14 -2 -31 3 -37 10 -6 8 -15 11 -20 8 -17 -10 -9 9
9 22 16 12 15 13 -5 11 -13 -1 -23 -7 -23 -15 0 -7 -5 -10 -10 -7 -6 4 -8 11
-5 16 4 5 4 9 1 9 -3 0 -7 -3 -9 -7z m64 -50 c13 -16 12 -17 -3 -4 -10 7 -18
15 -18 17 0 8 8 3 21 -13z"/>
<path d="M1501 1197 c-13 -21 -12 -21 5 -5 10 10 16 20 13 22 -3 3 -11 -5 -18
-17z"/>
<path d="M156 1197 c3 -10 9 -15 12 -12 3 3 0 11 -7 18 -10 9 -11 8 -5 -6z"/>
<path d="M2320 1175 c-7 -9 -8 -15 -2 -15 5 0 12 7 16 15 3 8 4 15 2 15 -2 0
-9 -7 -16 -15z"/>
<path d="M173 1145 c0 -8 4 -12 9 -9 5 3 6 10 3 15 -9 13 -12 11 -12 -6z"/>
<path d="M1560 1145 c-6 -8 -10 -20 -7 -27 4 -9 6 -7 6 4 1 17 16 18 41 3 9
-5 8 0 -4 13 -23 26 -21 26 -36 7z"/>
<path d="M1617 1154 c-3 -3 -3 -13 0 -21 5 -12 7 -12 14 -1 7 11 11 10 19 -2
6 -9 10 -11 10 -3 0 14 -34 35 -43 27z"/>
<path d="M1679 1158 c-11 -48 -7 -61 11 -29 7 13 7 22 0 26 -5 3 -10 5 -11 3z"/>
<path d="M1983 1144 c0 -10 4 -11 14 -3 10 9 15 6 22 -12 8 -19 10 -20 10 -6
1 10 6 15 11 12 6 -4 7 -12 3 -18 -4 -8 -1 -7 9 1 14 11 18 10 27 -5 6 -10 11
-13 11 -6 0 6 -5 15 -10 18 -6 4 -8 10 -5 15 3 5 1 12 -5 15 -6 4 -10 3 -9 -2
3 -19 -2 -27 -10 -14 -12 18 -68 22 -68 5z"/>
<path d="M2101 1146 c-6 -7 -6 -17 -1 -26 7 -11 10 -12 10 -2 0 7 4 11 9 7 5
-3 12 -1 16 5 4 6 11 8 16 5 13 -9 53 -15 45 -8 -3 3 -1 11 4 18 7 8 5 12 -5
12 -7 0 -14 -3 -13 -6 2 -19 -4 -24 -12 -11 -11 17 -57 21 -69 6z m34 -5 c-9
-8 -36 -10 -30 -2 2 4 11 8 20 8 8 0 13 -3 10 -6z"/>
<path d="M2216 1144 c-4 -9 -4 -19 -1 -22 3 -3 5 0 5 6 0 6 8 9 18 6 10 -4 13
-2 7 3 -5 4 -13 12 -16 16 -4 4 -9 0 -13 -9z"/>
<path d="M2400 1139 c-20 -16 -21 -18 -4 -10 21 10 34 6 34 -11 0 -5 -5 -6
-12 -2 -7 5 -8 3 -3 -6 6 -10 11 -9 21 4 7 10 15 13 18 7 3 -5 14 -8 24 -6 9
2 20 4 23 4 4 1 9 7 12 15 6 14 -16 16 -29 3 -4 -4 -13 -2 -21 4 -7 6 -13 8
-13 4 0 -4 -6 -3 -13 3 -9 8 -19 5 -37 -9z"/>
<path d="M346 1142 c-11 -11 -6 -20 15 -25 13 -4 18 -10 13 -18 -5 -8 -3 -10
5 -4 9 5 10 10 2 18 -20 20 -11 31 9 12 12 -11 20 -13 20 -6 0 7 5 9 10 6 6
-4 8 -10 6 -14 -3 -4 1 -8 9 -8 11 0 12 4 4 14 -8 9 -8 13 -1 13 6 0 16 -8 21
-17 8 -15 11 -15 12 -3 1 8 1 18 0 23 0 4 4 7 9 7 6 0 10 -4 10 -10 0 -5 5
-10 11 -10 8 0 8 4 0 14 -12 14 -67 16 -89 2 -7 -4 -18 -4 -24 1 -17 10 -35
12 -42 5z"/>
<path d="M1363 1133 c-7 -3 -13 -9 -13 -15 0 -7 5 -6 14 1 7 6 20 9 29 5 8 -3
17 -2 20 3 6 9 -30 13 -50 6z"/>
<path d="M1470 1136 c0 -2 7 -7 16 -10 8 -3 12 -2 9 4 -6 10 -25 14 -25 6z"/>
<path d="M2273 1125 c0 -8 4 -12 9 -9 5 3 6 10 3 15 -9 13 -12 11 -12 -6z"/>
<path d="M1995 1121 c-3 -5 -2 -12 3 -15 5 -3 9 1 9 9 0 17 -3 19 -12 6z"/>
<path d="M268 1113 c7 -3 16 -2 19 1 4 3 -2 6 -13 5 -11 0 -14 -3 -6 -6z"/>
<path d="M516 1112 c-3 -5 1 -9 9 -9 8 0 12 4 9 9 -3 4 -7 8 -9 8 -2 0 -6 -4
-9 -8z"/>
<path d="M1226 1108 c3 -4 11 -5 19 -1 21 7 19 12 -4 10 -11 0 -18 -5 -15 -9z"/>
<path d="M1575 1110 c3 -5 8 -10 11 -10 2 0 4 5 4 10 0 6 -5 10 -11 10 -5 0
-7 -4 -4 -10z"/>
<path d="M1700 1115 c0 -7 30 -13 34 -7 3 4 -4 9 -15 9 -10 1 -19 0 -19 -2z"/>
<path d="M276 1088 c3 -5 10 -6 15 -3 13 9 11 12 -6 12 -8 0 -12 -4 -9 -9z"/>
</g>
</svg>
